<svg id="icons" enable-background="new 0 0 64 64" height="64" viewBox="0 0 64 64" width="64" xmlns="http://www.w3.org/2000/svg"><g><g><g><path d="m63 54h-62c-.308 0-.599-.143-.788-.385s-.257-.559-.182-.857l7-28c.134-.536.678-.86 1.213-.728.536.134.861.677.728 1.213l-6.69 26.757h59.44l-4.271-17.088c-.136-.535.19-1.078.728-1.212.534-.136 1.078.19 1.213.728l4.58 18.33c.074.299.008.615-.183.857-.188.242-.479.385-.788.385z"/></g><g><path d="m32 54c-.552 0-1-.447-1-1 0-7.418 5.707-10.623 11.749-14.016l.88-.495c.48-.273 1.092-.103 1.362.38.271.48.102 1.091-.38 1.361l-.883.496c-5.994 3.368-10.728 6.026-10.728 12.274 0 .553-.447 1-1 1z"/></g><g><path d="m1 58c-.552 0-1-.447-1-1v-4c0-.553.448-1 1-1s1 .447 1 1v4c0 .553-.448 1-1 1z"/></g><g><path d="m63 58h-62c-.552 0-1-.447-1-1s.448-1 1-1h62c.553 0 1 .447 1 1s-.447 1-1 1z"/></g><g><path d="m63 58c-.553 0-1-.447-1-1v-4c0-.553.447-1 1-1s1 .447 1 1v4c0 .553-.447 1-1 1z"/></g><g><path d="m32 58c-.552 0-1-.447-1-1v-4c0-.553.448-1 1-1 .553 0 1 .447 1 1v4c0 .553-.447 1-1 1z"/></g><g><path d="m2.001 50c-.329 0-.651-.162-.842-.459-.298-.465-.164-1.084.301-1.382 4.857-3.123 9.588-4.519 13.761-5.747 8.318-2.452 14.888-4.389 19.841-17.759.192-.517.765-.781 1.285-.59.519.191.782.767.59 1.285-5.301 14.311-12.646 16.475-21.151 18.982-4.242 1.25-8.629 2.543-13.246 5.511-.166.108-.354.159-.539.159z"/></g><g><path d="m20 35c-2.422 0-6.797-7.052-8.139-9.523-1.305-2.409-2.861-5.835-2.861-8.477 0-6.065 4.935-11 11-11s11 4.935 11 11c0 2.642-1.556 6.068-2.861 8.477-1.342 2.471-5.717 9.523-8.139 9.523zm0-27c-4.962 0-9 4.038-9 9 0 1.734.93 4.406 2.62 7.523 2.559 4.713 5.493 8.043 6.38 8.454.888-.41 3.821-3.741 6.381-8.455 1.689-3.116 2.619-5.788 2.619-7.522 0-4.962-4.038-9-9-9z"/></g><g><path d="m50 47c-2.132 0-5.689-5.441-6.729-7.109-1.283-2.049-4.271-7.214-4.271-10.891 0-1.536.313-3.018.926-4.405 1.746-4.004 5.702-6.595 10.074-6.595 6.064 0 11 4.935 11 11 0 1.589-.563 3.635-1.669 6.082-2.147 4.745-6.965 11.918-9.331 11.918zm0-27c-3.577 0-6.813 2.12-8.243 5.4-.503 1.135-.757 2.345-.757 3.6 0 2.158 1.521 5.925 3.968 9.829 2.386 3.83 4.408 5.849 5.035 6.147 1.172-.519 5.126-5.461 7.506-10.72.975-2.154 1.491-3.972 1.491-5.256 0-4.962-4.037-9-9-9z"/></g><g><path d="m12.74 26h-4.74c-.552 0-1-.448-1-1s.448-1 1-1h4.74c.552 0 1 .448 1 1s-.448 1-1 1z"/></g><g><path d="m40.83 26h-13.57c-.552 0-1-.448-1-1s.448-1 1-1h13.57c.553 0 1 .448 1 1s-.447 1-1 1z"/></g><g><path d="m20 24c-2.757 0-5-2.243-5-5 0-.552.448-1 1-1s1 .448 1 1c0 1.654 1.346 3 3 3s3-1.346 3-3c0-.552.448-1 1-1s1 .448 1 1c0 2.757-2.243 5-5 5z"/></g><g><path d="m24 19c-.552 0-1-.448-1-1 0-2.206-1.794-4-4-4-.552 0-1-.448-1-1s.448-1 1-1c3.309 0 6 2.691 6 6 0 .552-.448 1-1 1z"/></g><g><path d="m16 17c-.552 0-1-.448-1-1s.448-1 1-1c1.103 0 2-.897 2-2 0-.552.448-1 1-1s1 .448 1 1c0 2.206-1.794 4-4 4z"/></g><g><path d="m16 20c-.552 0-1-.448-1-1v-3c0-.552.448-1 1-1s1 .448 1 1v3c0 .552-.448 1-1 1z"/></g><g><path d="m24 20c-.552 0-1-.448-1-1v-1c0-.552.448-1 1-1s1 .448 1 1v1c0 .552-.448 1-1 1z"/></g><g><path d="m50 36c-2.757 0-5-2.243-5-5 0-.552.447-1 1-1s1 .448 1 1c0 1.654 1.346 3 3 3s3-1.346 3-3c0-.552.447-1 1-1s1 .448 1 1c0 2.757-2.243 5-5 5z"/></g><g><path d="m54 31c-.553 0-1-.448-1-1 0-2.206-1.794-4-4-4-.553 0-1-.448-1-1s.447-1 1-1c3.309 0 6 2.691 6 6 0 .552-.447 1-1 1z"/></g><g><path d="m46 29c-.553 0-1-.448-1-1s.447-1 1-1c1.104 0 2-.897 2-2 0-.552.447-1 1-1s1 .448 1 1c0 2.206-1.794 4-4 4z"/></g><g><path d="m46 32c-.553 0-1-.448-1-1v-3c0-.552.447-1 1-1s1 .448 1 1v3c0 .552-.447 1-1 1z"/></g><g><path d="m54 32c-.553 0-1-.448-1-1v-1c0-.552.447-1 1-1s1 .448 1 1v1c0 .552-.447 1-1 1z"/></g></g></g></svg>