<?xml version="1.0"?>
<svg xmlns="http://www.w3.org/2000/svg" viewBox="0 0 64 64" width="512" height="512"><g id="Outline"><g><path d="M3.511,40.039a.976.976,0,0,0,.176-.016A1,1,0,0,0,4.5,38.864a13.807,13.807,0,0,1-.118-4.018L5.635,24.167l1.73,3.077c.233.413.443.836.654,1.259l.165.33a1,1,0,0,0,1.725.105l1.326-1.988a4.914,4.914,0,0,0-.276-5.851,3.041,3.041,0,0,1,.365-4.009l4.226-4.226a5.748,5.748,0,0,0,3.8,6.642A3.73,3.73,0,0,1,21.1,20.719l1.125,1.406a1.021,1.021,0,0,0,.823.374,1,1,0,0,0,.789-.444l1.4-2.105a4.914,4.914,0,0,0-.276-5.851,3.041,3.041,0,0,1,.365-4.009l5.4-5.4-.495,4.943a4.952,4.952,0,0,0,2.029,4.5A8.012,8.012,0,0,1,35.7,22.449a2.117,2.117,0,0,0,3.836,1.635l1.1-1.686a5.128,5.128,0,0,0,.414-4.824l-.871-2.032a3.139,3.139,0,0,1,.959-3.713l4.191-3.261-.421,1.685a5.107,5.107,0,0,0,3.005,5.988,3.1,3.1,0,0,1,1.735,1.569,22.444,22.444,0,0,1,1.176,3.828,1,1,0,0,0,1.878.224l.2-.415a19.257,19.257,0,0,1,6.418-7.3l-.987,3.29a13.71,13.71,0,0,0,.179,8.762,11.4,11.4,0,0,1,.163,7.641l-.933,2.8a1,1,0,1,0,1.9.633l.932-2.8a13.394,13.394,0,0,0-.19-8.986,11.7,11.7,0,0,1-.132-7.475l1.716-5.72a1,1,0,0,0-1.405-1.182,21.276,21.276,0,0,0-8.434,7.65c-.189-.588-.4-1.159-.625-1.709A5.047,5.047,0,0,0,48.681,14.4a3.119,3.119,0,0,1-1.835-3.656l1.124-4.5A1,1,0,0,0,46.386,5.21l-6.479,5.04a5.141,5.141,0,0,0-1.568,6.08l.871,2.033a3.128,3.128,0,0,1-.254,2.946L37.86,23c-.027.044-.049.084-.143.044s-.079-.083-.068-.135a9.978,9.978,0,0,0-4.221-10.4A2.944,2.944,0,0,1,32.222,9.83l.773-7.73a1,1,0,0,0-1.7-.807L23.91,8.676a5.057,5.057,0,0,0-.5,6.683,2.924,2.924,0,0,1,.165,3.482l-.644.967-.271-.338a5.736,5.736,0,0,0-2.669-1.862,3.743,3.743,0,0,1-2.322-4.867l1.272-3.39a1,1,0,0,0-1.644-1.058L9.91,15.676a5.057,5.057,0,0,0-.5,6.683,2.924,2.924,0,0,1,.165,3.482l-.381.571c-.027-.05-.054-.1-.083-.149L5.871,20.51a1,1,0,0,0-1.864.373L2.392,34.612a15.778,15.778,0,0,0,.135,4.6A1,1,0,0,0,3.511,40.039Z"/><path d="M59.766,49H60a1,1,0,0,0,.848-1.53l-1.57-2.511a1,1,0,0,0,.554-1.514l-4-6a1.039,1.039,0,0,0-1.664,0L53,39.2,50.868,36H53a1,1,0,0,0,.8-1.6l-3.2-4.265c.054.009.1.025.158.032a4.617,4.617,0,0,0,3.394-.924,6.329,6.329,0,0,1-.229,3.012,1,1,0,0,0,.634,1.265.99.99,0,0,0,.315.052,1,1,0,0,0,.949-.685,8.588,8.588,0,0,0-.15-5.705l-.131-.372A1,1,0,0,0,53.7,26.7a2.648,2.648,0,0,1-4.974-.594l-.831-3.837a9.009,9.009,0,0,0-1.658-3.042,1,1,0,0,0-1.769.61,8.118,8.118,0,0,1-1.315,4.194,37.014,37.014,0,0,1-2.435,3.308,1.027,1.027,0,0,0-1.54.1L36.512,31.35,34.1,28.136a20.058,20.058,0,0,0-3.27-12.691,1,1,0,0,0-1.8.312L28,19.863a18.052,18.052,0,0,1-2.185,5.155,1,1,0,0,0,1.7,1.055,20.039,20.039,0,0,0,2.424-5.725l.425-1.7a18.093,18.093,0,0,1,1.8,7.406,1,1,0,0,0-.965.343l-3.712,4.95-2.661-3.912a1.039,1.039,0,0,0-1.654,0l-.25.367-.19-.238a36.663,36.663,0,0,0-6.283-6.161,1,1,0,0,0-1.219,1.586,34.572,34.572,0,0,1,5.94,5.825l.575.719-.758,1.115L17.8,26.4a1.036,1.036,0,0,0-1.6,0l-6,8A1,1,0,0,0,11,36h2.132L11,39.2,9.832,37.445a1.039,1.039,0,0,0-1.664,0l-4,6a1,1,0,0,0,.554,1.514L3.152,47.47A1,1,0,0,0,4,49h.234L2.143,52.485A1,1,0,0,0,3,54H6v4a1,1,0,0,0,2,0V54h2v4a1,1,0,0,0,2,0V54h2v7a1,1,0,0,0,2,0V54h2v7a1,1,0,0,0,2,0V54h2v4a1,1,0,0,0,2,0V54h5v7a1,1,0,0,0,2,0V54h2v7a1,1,0,0,0,2,0V54h5v4a1,1,0,0,0,2,0V54h2v7a1,1,0,0,0,2,0V54h2v7a1,1,0,0,0,2,0V54h2v4a1,1,0,0,0,2,0V54h2v4a1,1,0,0,0,2,0V54h3a1,1,0,0,0,.857-1.515Zm-7.251-4h4.431L58.2,47H53.943ZM55,39.8,57.132,43h-1.6L54.2,41ZM53.132,43H40.868l4.667-7h2.93ZM37.515,45h3.971L39.5,47.78ZM24.5,47.78,22.514,45h3.972ZM25.868,43l4.667-7h2.93l4.667,7ZM43,34l4-5.333L51,34Zm1.826-8.877a10.126,10.126,0,0,0,1.129-2.35l0,.011.713,3.308a.914.914,0,0,0-.472.308l-3.188,4.251-1.105-1.626A39.683,39.683,0,0,0,44.826,25.123ZM40,29.778l1.743,2.565L40.2,34.4A1,1,0,0,0,41,36h2.132L39.5,41.447,35.868,36H38a1,1,0,0,0,.8-1.6l-1.019-1.358Zm-8-1.111L36,34H28Zm-8,1.111,2.219,3.264L25.2,34.4A1,1,0,0,0,26,36h2.132L24.5,41.447,20.868,36H23a1,1,0,0,0,.8-1.6l-1.543-2.057Zm-7-1.111L21,34H13ZM18.465,36l4.667,7H10.868l4.667-7ZM10.057,47H5.805l1.249-2h4.432ZM9,39.8,9.8,41,8.465,43h-1.6ZM4.767,52l1.8-3H8.629L6.486,52Zm4.176,0,5-7h6.114l3.214,4.5L21.486,52Zm15,0,5-7h6.115l5,7Zm18.571,0-1.785-2.5L43.943,45h6.115l5,7Zm15,0-2.142-3h2.062l1.8,3Z"/></g></g></svg>
